<svg class="icon" version="1.1" xmlns="http://www.w3.org/2000/svg"
     width="40" height="40">
    <g transform="scale(0.0390625)">
        <path d="M0.000911-0.000999h1024.000999v1024.000999H0.00191z" ></path>
        <path d="M88.32664 831.999625h384.00075v64.000125H88.32664z" fill="#FFFFFF" ></path>
        <path d="M210.267476 472.120601l-25.822718 24.961228c-4.46136 4.471354-10.636705 6.338249-17.453671 6.338249-6.815966 0-12.992311-1.866895-17.463665-6.338249l-41.475455-41.773279c-4.471354-4.471354-6.721023-11.010484-6.721023-17.836445 0-6.82596 2.249669-12.992311 6.721023-17.463665l41.351528-41.935183c4.471354-4.471354 10.770626-6.176345 17.587592-6.176344 6.815966 0 12.992311 1.867895 17.453671 6.338249l25.821718 24.951234c4.921088 4.930082 13.069266 4.758184 18.191235-0.363785 5.121969-5.131963 5.294867-13.280141 0.373779-18.201229l-24.979218-25.238064a48.398358 48.398358 0 0 0-23.409146-12.800425l23.619022-23.964817c4.941076-4.921088 4.768178-13.07826-0.35379-18.20023-5.121969-5.121969-13.279141-5.284872-18.210224-0.363784L88.798361 400.76283c-9.392442 9.402436-14.304535 22.374759-14.304535 36.71827 0 14.341513 4.912093 27.716597 14.304535 37.100044l41.61937 41.753291c9.392442 9.373453 22.374759 13.901773 36.708276 13.901773 14.331519 0 27.313836-4.902099 36.716271-14.303535l24.979218-25.248059c4.921088-4.921088 4.749189-13.068266-0.373779-18.191234-5.121969-5.121969-13.269147-5.293867-18.181241-0.372779z m45.084319-47.105124h-97.130518c-6.721023 0-12.159804 5.782578-12.159804 12.887373 0 7.103796 5.438781 12.887373 12.159804 12.887374h97.130518c6.712028 0 12.158804-5.783577 12.158805-12.887374 0-7.104795-5.446777-12.887373-12.158805-12.887373z"
              fill="#FFFFFF" ></path>
        <path d="M317.310128 504.326541l21.367355-134.474418h80.685251l-3.316038 20.078118h-57.841769l-5.710621 35.001286h51.579476l-3.132147 19.894227h-51.579475l-6.263293 39.42167h58.02666l-3.131147 20.078118z"
              fill="#FFFFFF" ></path>
        <path d="M458.046841 506.168451q-15.289951 0-22.658591-10.315895-7.36764-10.499786-4.605275-28.368212l4.237493-27.447756q2.763365-17.869425 13.631932-28.368212 10.867569-10.500786 26.15752-10.500786 11.23635 0 17.315753 5.710621 6.263293 5.526729 6.078403 15.473842h0.369781l3.315038-24.131719 4.605275-28.368211h23.026373L508.151189 504.326541h-22.65859l3.132146-19.342553h-0.368782q-3.131147 10.132004-11.23635 15.657734-7.921312 5.526729-18.973772 5.526729z m11.421241-19.895226q8.657876 0 14.368497-5.156948 5.709621-5.342838 7.183748-14.737279l4.052602-25.420956q1.474128-9.39444-2.763365-14.553387-4.052602-5.341839-12.710478-5.341839-8.841767 0-14.552388 5.157948-5.526729 5.156948-6.999857 14.737278l-4.052602 25.420956q-1.659018 9.578332 2.394583 14.736279 4.052602 5.157948 13.07926 5.157948z"
              fill="#FFFFFF" ></path>
        <path d="M535.783836 504.326541l3.315038-21.000572h35.369069l9.578332-59.499788h-30.946686l3.315038-20.815681h52.684821l-12.526586 80.315469h31.316467l-3.316038 21.000572z m63.736281-118.264012q-6.999858 0-10.499786-3.499928-3.499929-3.68382-2.578474-9.763223 0.920455-6.078403 5.526729-9.578331 4.788166-3.684819 11.789024-3.684819 6.999858 0 10.314895 3.684819 3.500928 3.499929 2.579474 9.578331-0.921455 6.079402-5.52673 9.764222-4.605275 3.498929-11.605132 3.498929z"
              fill="#FFFFFF" ></path>
        <path d="M698.994249 504.326541q-14.553387 0-21.553245-8.105203-6.815966-8.105203-4.420384-22.289809l7.920313-50.105348H653.495175l3.131147-20.815681h27.447757l4.420384-27.631648h23.211263l-4.421383 27.631648h38.868997l-3.316037 20.815681h-38.868998l-7.920313 50.105348q-1.659018 9.578332 7.736422 9.578331h27.631648l-3.131147 20.816681z"
              fill="#FFFFFF" ></path>
        <path d="M798.099599 506.168451q-19.342553 0-29.105776-10.683677-9.579331-10.869567-6.631075-29.105776l4.052601-25.420956q2.025801-12.158804 8.472986-21.000572 6.632075-9.026658 16.76308-13.815823 10.315895-4.974056 23.211263-4.974057 19.341554 0 28.920885 10.868568 9.763222 10.683677 6.815966 28.736994l-4.052601 25.604847q-2.026801 12.158804-8.657877 21.185462-6.447185 8.841767-16.763079 13.815824-10.132004 4.789166-23.026373 4.789166z m3.315038-20.079117q9.026658 0 14.737278-4.974057 5.894512-5.156948 7.36864-14.736279l4.052601-25.420956q1.473128-9.579331-2.763364-14.553387-4.052602-5.156948-13.263151-5.156948-9.026658 0-14.92117 5.156948-5.71062 4.974056-7.183749 14.553387l-4.052601 25.420956q-1.474128 9.578332 2.578474 14.736279 4.237492 4.974056 13.447042 4.974057z"
              fill="#FFFFFF" ></path>
        <path d="M871.046429 504.326541l16.026516-101.316041h21.737136l-3.132147 19.341553h0.184891q8.289095-21.184463 31.315467-21.184463 16.394298 0 24.131719 10.132004 7.736422 10.132004 4.974057 28.00043l-1.289237 7.367639h-24.132719l1.105346-5.709621q1.474128-9.764222-2.763365-15.10606-4.052602-5.341839-12.894369-5.341839-9.026658 0-14.921169 5.341839-5.71062 5.342838-7.183749 15.10606l-10.132004 63.368499z"
              fill="#FFFFFF" ></path>
    </g>
</svg>
