<?xml version="1.0" standalone="no"?><!DOCTYPE svg PUBLIC "-//W3C//DTD SVG 1.1//EN"
        "http://www.w3.org/Graphics/SVG/1.1/DTD/svg11.dtd">
<svg class="icon" width="16" height="16" version="1.1" xmlns="http://www.w3.org/2000/svg">
    <g transform="scale(0.015625)">
        <path fill="#6E6E6E"
              d="M319.95898437 469.72460937H736.12109375c38.84765625 0 53.96484375 93.1640625 54.140625 196.87500001 0.17578125 103.7109375-38.93554688 196.875-69.9609375 196.87499999H625.29101563c-3.60351563 0-6.06445313-3.60351563-4.74609376-6.94335936 4.48242188-11.42578125 12.04101563-34.8046875 8.70117188-55.37109376-4.65820313-28.4765625-14.50195313-51.6796875-14.50195313-51.6796875s7.29492188 21.00585938-22.67578125 60.38085938c-27.421875 36.03515625-51.76757813 48.95507813-59.85351562 52.47070312-1.66992188 0.703125-3.42773438 1.14257813-5.2734375 1.14257813H223.89453125c-21.35742188 0-38.671875-17.75390625-37.79296875-39.375 0.26367188-6.50390625 2.28515625-12.91992188 5.71289063-18.45703125l42.80273437-71.36718751c31.20117188-51.94335938 47.63671875-111.4453125 47.63671875-172.00195312V507.60546875c-0.08789063-20.91796875 16.875-37.88085938 37.70507812-37.88085938z m187.82226564-138.95507812V198.31835937c0-20.91796875 16.96289063-37.88085938 37.88085937-37.88085937s37.88085938 16.96289063 37.88085937 37.88085938v132.45117187h141.328125c20.91796875 0 37.88085938 16.96289063 37.88085938 37.88085938V406.53124999c0 20.91796875-16.96289063 37.88085938-37.88085938 37.88085939H346.32617187c-20.91796875 0-37.88085938-16.96289063-37.88085937-37.88085937v-37.88085939c0-20.91796875 16.96289063-37.88085938 37.88085938-37.88085937h161.45507811z"/>
    </g>
</svg>