<?xml version="1.0" standalone="no"?><!DOCTYPE svg PUBLIC "-//W3C//DTD SVG 1.1//EN"
        "http://www.w3.org/Graphics/SVG/1.1/DTD/svg11.dtd">
<svg class="icon" width="16" height="16" version="1.1" xmlns="http://www.w3.org/2000/svg">
    <g transform="scale(0.015625)">
        <path fill="#6E6E6E"
              d="M512 545.9v237.3c0 9.1-3.3 17.2-10 23.8s-14.7 10-23.8 10c-9.1 0-17.2-3.3-23.8-10L378 730.8 202 906.7c-3.6 3.6-7.6 5.3-12.1 5.3s-8.7-1.8-12.1-5.3l-60.4-60.4c-3.6-3.6-5.3-7.6-5.3-12.1 0-4.6 1.8-8.7 5.3-12.1l175.8-176-76.3-76.3c-6.7-6.7-10-14.6-10-23.8 0-9.1 3.3-17.2 10-23.8s14.6-10 23.8-10H478c9.1 0 17.2 3.3 23.8 10 6.9 6.6 10.2 14.5 10.2 23.7z m400-356c0 4.6-1.8 8.7-5.3 12.1L730.8 377.9l76.3 76.3c6.7 6.7 10 14.7 10 23.8 0 9.1-3.3 17.2-10 23.8-6.7 6.7-14.7 10-23.8 10H546c-9.1 0-17.2-3.3-23.8-10s-10-14.6-10-23.8V240.7c0-9.1 3.3-17.2 10-23.8 6.7-6.7 14.6-10 23.8-10 9.1 0 17.2 3.3 23.8 10l76.3 76.3L822 117.3c3.6-3.6 7.6-5.3 12.1-5.3 4.6 0 8.7 1.8 12.1 5.3l60.4 60.4c3.6 3.5 5.4 7.6 5.4 12.2z"/>
    </g>
</svg>