<?xml version="1.0" standalone="no"?><!DOCTYPE svg PUBLIC "-//W3C//DTD SVG 1.1//EN"
        "http://www.w3.org/Graphics/SVG/1.1/DTD/svg11.dtd">
<svg class="icon" width="16" height="16" version="1.1" xmlns="http://www.w3.org/2000/svg">
    <g transform="scale(0.015625)">
        <path fill="#6E6E6E"
              d="M912 455.1v115.6c0 4.2-1.4 8.2-4.2 11.9-2.7 3.8-6.3 6-10.4 6.8L801 604c-6.6 18.7-13.4 34.5-20.3 47.4 12.2 17.4 30.8 41.3 55.8 71.9 3.5 4.2 5.3 8.5 5.3 13.1 0 4.5-1.5 8.5-4.8 11.9-9.4 12.9-26.5 31.6-51.5 56.3-25 24.6-41.3 37.1-48.9 37.1-4.2 0-8.6-1.5-13.6-4.8l-71.9-56.3c-15.3 8-31.1 14.6-47.4 19.8-5.6 47.2-10.6 79.5-15.1 96.8-2.4 9.7-8.6 14.6-18.7 14.6H454.2c-4.9 0-9.1-1.5-12.7-4.4-3.6-2.9-5.7-6.7-6-11.1l-14.7-96c-17-5.6-32.6-11.9-46.9-19.2l-73.4 55.8c-3.5 3.1-7.8 4.8-13.1 4.8-4.9 0-9.2-1.8-13.1-5.7-43.7-39.5-72.4-68.8-86-87.5-2.4-3.5-3.6-7.5-3.6-11.9 0-4.2 1.4-8.1 4.2-11.9 5.3-7.3 14-18.8 26.5-34.6s21.9-28 28.1-36.7c-9.4-17.3-16.5-34.5-21.4-51.5l-95.3-14c-4.5-0.6-8.2-2.8-10.9-6.5-2.7-3.6-4.2-7.8-4.2-12.3v-116c0-4.2 1.4-8.1 4.2-11.9s6-6 9.8-6.8l96.8-14.6c4.9-16 11.6-32 20.3-47.9-13.9-19.8-32.4-43.7-55.8-71.9-3.5-4.2-5.3-8.3-5.3-12.5 0-3.5 1.5-7.5 4.8-11.9 9-12.5 26-31.1 51.2-56s41.6-37.3 49.2-37.3c4.5 0 9 1.7 13.6 5.3l71.9 55.8c15.2-8 31.1-14.6 47.4-19.8 5.6-47.2 10.6-79.5 15.1-96.8 2.4-9.7 8.6-14.6 18.7-14.6h115.6c4.9 0 9.1 1.5 12.7 4.4 3.6 2.9 5.6 6.7 6 11.1l14.6 95.8c17 5.6 32.6 11.9 46.9 19.2l73.9-55.8c3.1-3.1 7.3-4.8 12.5-4.8 4.5 0 8.9 1.7 13.1 5.3 44.8 41.3 73.4 70.9 86 88.5 2.4 2.7 3.6 6.6 3.6 11.5 0 4.2-1.4 8.2-4.2 11.9-5.3 7.3-14 18.8-26.5 34.6s-21.9 28-28.1 36.7c9 17.4 16.1 34.4 21.4 51l95.3 14.6c4.5 0.6 8.1 2.8 10.9 6.5 3.2 3.9 4.7 7.9 4.7 12.4zM606.3 606.2c26-26 39.1-57.5 39.1-94.3s-13.1-68.2-39.1-94.3c-26-25.9-57.5-39-94.3-39s-68.2 13.1-94.3 39.1c-26 26-39.1 57.5-39.1 94.3s13.1 68.2 39.1 94.3 57.5 39.1 94.3 39.1c36.8-0.2 68.2-13.2 94.3-39.2z"/>
    </g>
</svg>