<?xml version="1.0" standalone="no"?>
<!DOCTYPE svg PUBLIC "-//W3C//DTD SVG 20010904//EN"
 "http://www.w3.org/TR/2001/REC-SVG-20010904/DTD/svg10.dtd">
<svg version="1.0" xmlns="http://www.w3.org/2000/svg"
 width="16" height="16" viewBox="0 0 1280.000000 1280.000000"
 preserveAspectRatio="xMidYMid meet">
<metadata>
Created by potrace 1.15, written by Peter Selinger 2001-2017
</metadata>
<g transform="translate(0.000000,1280.000000) scale(0.100000,-0.100000)"
fill="#AFB1B3" stroke="none">
<path d="M9740 10700 c-379 -358 -692 -650 -695 -650 -3 0 -5 36 -5 80 l0 80
-4520 0 -4520 0 0 -4190 0 -4190 225 0 225 0 0 -105 0 -105 4410 0 4410 0 2
2687 3 2687 1745 1313 c960 723 1749 1318 1753 1322 4 4 -196 156 -445 338
-249 181 -778 567 -1175 856 l-723 526 -690 -649z m-920 -783 l0 -83 -2506
-2360 c-1378 -1297 -2509 -2360 -2513 -2361 -3 -2 -161 448 -350 1000 -189
551 -345 1005 -347 1008 -2 3 -360 -50 -796 -117 -436 -68 -1049 -162 -1363
-210 -314 -48 -571 -89 -573 -90 -3 -2 2779 -4096 2858 -4206 l26 -36 2774
2089 c1526 1149 2778 2089 2783 2089 4 0 7 -1035 7 -2300 l0 -2300 -4295 0
-4295 0 0 3980 0 3980 4295 0 4295 0 0 -83z"/>
</g>
</svg>
