<?xml version="1.0" standalone="no"?><!DOCTYPE svg PUBLIC "-//W3C//DTD SVG 1.1//EN"
        "http://www.w3.org/Graphics/SVG/1.1/DTD/svg11.dtd">
<svg class="icon" width="16" height="16" version="1.1"
     xmlns="http://www.w3.org/2000/svg">
    <g transform="scale(0.015625)">
        <path fill="#AFB1B3"
              d="M870.59375 90.125H146.37527466C118.24972534 90.125 90.125 118.24972534 90.125 146.37527466V701.84375c0 28.12472534 28.12472534 56.25027466 56.25027466 56.25027466h210.9375L469.8125 912.78125l7.03097534 7.03097534c7.03179932 7.03179932 21.09375 14.06277466 35.15652466 14.06277466s28.12472534-7.03097534 42.1875-21.09375l112.49972534-154.68722534h210.9375c35.15652466 0 56.25027466-28.12554932 56.25027466-56.25027466V146.37527466C926.84402466 111.21875 905.75027466 90.125 870.59375 90.125zM687.78097534 561.21847534H336.21902466c-21.09375 0-35.15652466-14.06195068-35.15652466-35.15570068s21.09375-35.15652466 35.15652466-35.15652466h351.56195068c21.09375 0 35.15652466 14.06277466 35.15652466 35.15652466 0 7.03097534 0 21.09375-7.03097534 28.12472534-7.03179932 0-21.09375 7.03097534-28.12554932 7.03097534z m0-203.90570068H336.21902466c-21.09375 0-35.15652466-14.06277466-35.15652466-35.15652466s21.09375-35.15652466 35.15652466-35.15652466h351.56195068C708.87472534 286.99972534 722.9375 301.0625 722.9375 322.15625c0 7.03097534 0 21.09375-7.03097534 28.12472534-7.03179932 7.03179932-21.09375 7.03179932-28.12554932 7.03179932z"/>

    </g>
</svg>