<svg class="icon" version="1.1" xmlns="http://www.w3.org/2000/svg"
     width="16" height="16">
    <g transform="scale(0.015625)">
        <path fill="#AFB1B3" d="M526.528 165.76c116.906667-86.314667 282.474667-76.544 388.352 29.333333 114.474667 114.474667 116.821333 299.221333 5.333333 416.917334l-5.333333 5.461333-301.696 301.696c-48.149333 48.128-125.461333 50.112-176.810667 4.010667l-4.224-4.010667L130.453333 617.472c-116.629333-116.650667-116.629333-305.749333 0-422.4 105.664-105.664 271.232-115.776 388.629334-29.013333l3.541333 2.666666z m165.162667 319.082667l-2.346667 2.154666-143.829333 143.850667a42.666667 42.666667 0 0 0 58.026666 62.506667l2.304-2.176 143.850667-143.829334a42.666667 42.666667 0 0 0-58.005333-62.506666z"
        ></path>
    </g>
</svg>