<?xml version="1.0" standalone="no"?><!DOCTYPE svg PUBLIC "-//W3C//DTD SVG 1.1//EN"
        "http://www.w3.org/Graphics/SVG/1.1/DTD/svg11.dtd">
<svg class="icon" width="16" height="16" version="1.1" xmlns="http://www.w3.org/2000/svg">
    <g transform="scale(0.015625)">
        <path fill="#AFB1B3"
              d="M882.257254 271.526113l-33.44267 33.483602L749.728868 205.839065l33.463136-33.505092c18.21792-18.228153 47.856961-18.228153 66.064648 0l33.000602 33.042557C900.464941 223.604684 900.464941 253.276471 882.257254 271.526113zM535.681864 618.395192l-4.098341 4.055362-4.632507 4.854565-121.843022 22.11467 22.662139-121.212666 4.811586-4.843308 4.097318-4.117784 280.090163-280.384875 99.013061 99.107205L535.681864 618.395192zM364.764146 690.173982l198.612477-36.56273 253.257028-257.616312 0 297.204959c0 95.061053-77.0744 172.137499-172.137499 172.137499L300.223201 865.337397c-95.072309 0-172.136475-77.075423-172.136475-172.137499L128.086725 348.925924c0-95.062076 77.064166-172.137499 172.136475-172.137499l344.273974 0c19.720134 0 38.601156 3.488451 56.240909 9.592472L401.641031 490.11148 364.764146 690.173982z"/>
    </g>
</svg>