<?xml version="1.0" standalone="no"?><!DOCTYPE svg PUBLIC "-//W3C//DTD SVG 1.1//EN"
        "http://www.w3.org/Graphics/SVG/1.1/DTD/svg11.dtd">
<svg class="icon" width="16" height="16" version="1.1" xmlns="http://www.w3.org/2000/svg">
    <g transform="scale(0.015625)">
        <path fill="#AFB1B3"
              d="M908.6 134.7c6.5 15.5 3.8 28.8-8 39.7L620.9 454.1V875c0 15.8-7.4 27.1-22.1 33.5-4.9 2-9.7 2.9-14.2 2.9-10.3 0-18.7-3.6-25.5-10.7L413.8 755.2c-7.2-7.2-10.7-15.7-10.7-25.5V454.1L123.4 174.4c-11.7-11-14.3-24.2-8-39.7 6.5-14.8 17.5-22.1 33.5-22.1H875c16-0.1 27.2 7.3 33.6 22.1z"/>
    </g>
</svg>