<?xml version="1.0" standalone="no"?><!DOCTYPE svg PUBLIC "-//W3C//DTD SVG 1.1//EN"
        "http://www.w3.org/Graphics/SVG/1.1/DTD/svg11.dtd">
<svg class="icon" width="16" height="16" version="1.1" xmlns="http://www.w3.org/2000/svg">
    <g transform="scale(0.015625)">
        <path fill="#6E6E6E"
              d="M912 850.5c0 16.7-6.1 31-18.3 43.3-12.1 12.1-26.6 18.3-43.3 18.3-17.3 0-31.8-6.1-43.3-18.3L642.3 729.2C585 769 520.9 788.9 450.5 788.9c-45.8 0-89.7-8.9-131.5-26.7-41.9-17.8-77.9-41.9-108.2-72.1-30.3-30.3-54.3-66.3-72.1-108.2S112 496.2 112 450.4s8.9-89.7 26.7-131.5c17.8-41.9 41.9-77.9 72.1-108.2s66.3-54.3 108.2-72.1 85.7-26.7 131.5-26.7 89.7 8.9 131.5 26.7c41.9 17.8 77.9 41.9 108.2 72.1 30.3 30.3 54.3 66.3 72.1 108.2S789 404.6 789 450.4c0 70.5-19.9 134.5-59.7 191.8l165 164.9c11.9 11.9 17.7 26.4 17.7 43.4zM602.7 602.6c42.2-42.2 63.2-92.8 63.2-152.2 0-59.3-21-110-63.2-152.2C560.5 256 509.9 235 450.5 235c-59.3 0-110 21-152.2 63.2s-63.2 92.8-63.2 152.2c0 59.3 21 110 63.2 152.2 42.2 42.2 92.8 63.2 152.2 63.2s110.1-21.1 152.2-63.2z"/>
    </g>
</svg>