<svg class="icon" version="1.1" xmlns="http://www.w3.org/2000/svg"
     width="16" height="16">
    <g transform="scale(0.015625)">
        <path fill="#AFB1B3"
              d="M763.80215065 62.17419395c65.00322598 0 118.16129004 53.36129003 118.33548399 118.56774111v132.09677491a377.41935498 377.41935498 0 0 0-147.36774199-29.78709698 380.61290302 380.61290302 0 0 0-91.65483897 11.17741904 37.10322597 37.10322597 0 0 0-32.57419306-19.45161299H193.60860173c-20.43870997 0-37.16129003 16.75161299-37.16129004 37.24838702s16.72258096 37.24838701 37.16129004 37.24838789h327.30967793a381.54193506 381.54193506 0 0 0-124.92580693 142.80967704H193.78279568c-20.43870997 0-37.16129003 16.75161299-37.16129005 37.24838702s16.72258096 37.27741904 37.16129005 37.27741904h173.84516103a380.00322598 380.00322598 0 0 0-12.65806406 97.54838789c0 13.90645195 0.69677403 27.63870996 2.20645107 41.16774112H193.60860173c-20.43870997 0-37.16129003 16.78064502-37.16129004 37.27741992 0 20.49677402 16.72258096 37.24838701 37.16129004 37.24838701h179.1a381.10645195 381.10645195 0 0 0 94.00645195 154.48064502H158.8279567C93.85376364 934.332258 40.66666667 881 40.66666667 815.76451602V180.74193506C40.66666667 115.53548398 93.85376364 62.17419395 158.8279567 62.17419395h604.97419395z m-32.22580693 305.91290302c163.04516104 0 295.05483896 132.61935498 295.05483897 296.07096797 0 163.45161299-132.15483896 296.12903203-295.05483897 296.12903203-162.87096797 0-295.08387099-132.67741904-295.083871-296.12903203 0-163.45161299 132.00967705-296.07096797 295.083871-296.07096797z m148.52903291 362.81612901c18.08709698 0 32.92258096-14.89354805 32.92258007-33.03870996 0-18.29032295-14.69032295-33.00967705-32.92258007-33.00967706h-142.63548399v-143.30322597a32.89354805 32.89354805 0 1 0-65.816129 0v176.31290303c0 8.82580605 3.367742 17.12903203 9.43548399 23.22580693l0.17419306 0.17419307c0.17419395 0.31935498 0.52258096 0.49354805 0.87096797 0.84193593 6.067742 5.57419394 13.99354805 8.79677403 22.26774199 8.79677403h175.70322598z"></path>

    </g>
</svg>