<?xml version="1.0" standalone="no"?><!DOCTYPE svg PUBLIC "-//W3C//DTD SVG 1.1//EN"
        "http://www.w3.org/Graphics/SVG/1.1/DTD/svg11.dtd">
<svg class="icon" width="16" height="16" version="1.1"
     xmlns="http://www.w3.org/2000/svg">
    <g transform="scale(0.015625)">
        <path d="M887.07 298.076c0.587-9.572-2.473-19.307-9.798-26.632L680.214 74.614c-7.553-7.52-17.645-10.45-27.477-9.637H221.245c-36.837 0-66.69 29.821-66.69 66.576v765.935c0 36.755 29.853 66.577 66.69 66.577H821.31c36.853 0 66.707-29.822 66.707-66.577V298.076h-0.945zM654.626 147.474l150.797 150.602H654.625V147.474zM821.31 897.488H221.245V131.553h366.706V331.38c0 18.394 14.944 33.306 33.338 33.306h200.02v532.803z"
              fill="#AFB1B3"></path>
        <path d="M578.45767212 711.85644469L534.76487351 754.09158072c-7.54709243 7.56022453-17.99946785 10.72042465-29.53408242 10.72042465s-21.9862175-3.16020012-29.54644202-10.72042465l-70.17714501-70.6869793c-7.55945205-7.56022453-11.37625694-18.63212586-11.37625694-30.17910002s3.80444527-21.9862175 11.37625694-29.54566956l69.97089386-70.95502854c7.57181167-7.57258416 18.23043823-10.45314788 29.76505279-10.45314788s21.9862175 3.16020012 29.53408241 10.72042464l43.6935711 42.22277641c8.32574844 8.33733559 22.12062836 8.04611206 30.78626632-0.6195259 8.66563797-8.67799759 8.95763397-22.4728775 0.63188553-30.79862595l-42.27144241-42.70943641a81.58970833 81.58970833 0 0 0-39.06334877-21.54899598l-0.54691316-0.10891913 39.96251107-40.5457306c8.36205483-8.32574844 8.07005882-22.1322155-0.59480667-30.79862595s-22.47364998-8.94527436-30.81098557-0.6195259L372.93420029 591.10682807c-15.89756013 15.90991974-24.19858933 37.85905838-24.19858933 62.13103294s8.31338882 46.90243721 24.19858933 62.77527809l70.41970252 70.65144539c15.89756013 15.86125373 37.85983086 23.51803779 62.1194458 23.5180378s46.22188567-8.28866959 62.13103295-24.19858933l42.27144242-42.72102356c8.32574844-8.32574844 8.03375244-22.12062836-0.63188553-30.78626633s-22.44815827-8.95763397-30.76154709-0.63188552z m76.29129409-79.70563888H490.38997842c-11.37625694 0-20.57644844 9.7841835-20.57644844 21.80468559s9.2001915 21.80391311 20.57644844 21.80391312h164.35898779c11.3515377 0 20.57644844-9.7841835 20.57644844-21.80391312s-9.21255112-21.80468559-20.57644844-21.80468559z"
              fill="#AFB1B3"></path>
    </g>
</svg>