<svg xmlns="http://www.w3.org/2000/svg"
     width="13" height="13"
     preserveAspectRatio="xMidYMid meet">
    <g transform="scale(0.066666)">
        <g transform="translate(0.000000,150.000000) scale(0.100000,-0.100000)"
           fill="#B4B2B1" stroke="none">
            <path d="M658 736 c-33 -12 -48 -44 -48 -101 0 -37 5 -48 29 -66 28 -21 36
-21 362 -20 321 2 334 3 352 22 42 45 27 148 -23 164 -33 10 -643 11 -672 1z"/>
        </g>
        <g transform="translate(0.000000,150.000000) scale(0.100000,-0.100000)"
           fill="#F89F1C" stroke="none">
            <path d="M841 1202 c-18 -6 -194 -182 -188 -188 2 -2 21 2 43 9 83 27 117 12
229 -99 53 -52 108 -97 122 -100 35 -9 95 23 107 57 16 47 -2 80 -102 180 -95
95 -181 152 -211 141z"/>
            <path d="M947 382 c-50 -49 -106 -97 -124 -106 -40 -20 -100 -21 -147 -1 -36
15 -37 15 -27 -4 35 -64 -18 -140 -86 -126 l-28 6 23 -20 c75 -66 227 -79 336
-28 80 37 266 220 266 261 0 54 -31 92 -84 101 -35 7 -39 5 -129 -83z"/>
        </g>
        <g transform="translate(0.000000,150.000000) scale(0.100000,-0.100000)"
           fill="#DDDDDD" stroke="none">
            <path d="M559 1173 c-331 -331 -355 -360 -379 -468 -13 -58 -6 -117 22 -195
18 -47 44 -78 177 -213 144 -145 159 -157 192 -157 67 0 111 57 88 117 -5 15
-68 86 -138 158 -71 72 -134 141 -140 153 -19 36 -17 127 3 157 22 33 224 243
446 461 171 169 175 173 175 214 0 54 -38 90 -93 90 -35 0 -52 -16 -353 -317z"/>
        </g>
    </g>
</svg>
