<?xml version="1.0" standalone="no"?><!DOCTYPE svg PUBLIC "-//W3C//DTD SVG 1.1//EN"
        "http://www.w3.org/Graphics/SVG/1.1/DTD/svg11.dtd">
<svg class="icon" width="16" height="16" version="1.1" xmlns="http://www.w3.org/2000/svg">
    <g transform="scale(0.015625)">
        <path fill="#AFB1B3"
              d="M728.7 511.9c0 9-3.3 16.8-9.9 23.5L435.4 818.8c-6.5 6.5-14.5 9.9-23.5 9.9s-16.8-3.3-23.5-9.9c-6.5-6.5-9.9-14.4-9.9-23.5v-150H145.4c-9 0-16.8-3.3-23.5-9.9-6.5-6.5-9.9-14.4-9.9-23.5v-200c0-9 3.3-16.8 9.9-23.5 6.5-6.5 14.4-9.9 23.5-9.9h233.3v-150c0-9 3.3-16.8 9.9-23.5 6.5-6.5 14.4-9.9 23.5-9.9 9 0 16.8 3.3 23.5 9.9L719 488.4c6.3 6.8 9.7 14.5 9.7 23.5zM912 328.6v366.6c0 41.3-14.7 76.7-44.1 106.1s-64.7 44.1-106.1 44.1H595.2c-4.5 0-8.5-1.6-11.7-4.9-3.3-3.3-4.9-7.2-4.9-11.7 0-1.4-0.2-4.8-0.5-10.4-0.3-5.6-0.4-10.2-0.2-13.8 0.2-3.6 0.6-7.8 1.5-12.2 0.9-4.5 2.7-7.9 5.3-10.2s6.1-3.4 10.6-3.4h166.8c22.9 0 42.5-8.1 58.9-24.4 16.3-16.3 24.4-35.9 24.4-58.9V328.6c0-22.9-8.3-42.5-24.4-58.9-16.3-16.3-35.9-24.4-58.9-24.4H599.6c-1.1 0-3.1-0.2-6-0.5-3-0.3-4.9-0.9-6-1.5-1.1-0.6-2.4-1.6-4.2-2.9-1.7-1.2-3-2.8-3.6-4.7-0.6-1.8-1.1-4.3-1.1-7 0-1.4-0.2-4.8-0.5-10.4s-0.4-10.2-0.2-13.8c0.2-3.6 0.6-7.8 1.5-12.2s2.7-7.9 5.3-10.2 6.1-3.4 10.6-3.4h166.8c41.3 0 76.7 14.7 106.1 44.1 29 29.1 43.7 64.5 43.7 105.8z"/>
    </g>
</svg>