<?xml version="1.0" standalone="no"?><!DOCTYPE svg PUBLIC "-//W3C//DTD SVG 1.1//EN"
        "http://www.w3.org/Graphics/SVG/1.1/DTD/svg11.dtd">
<svg class="icon" width="16" height="16" version="1.1" xmlns="http://www.w3.org/2000/svg">
    <g transform="scale(0.015625)">
        <path fill="#AFB1B3"
              d="M438.5 789.5c0 1.4 0.2 4.7 0.5 10.2 0.3 5.5 0.4 10 0.2 13.5s-0.6 7.6-1.5 12-2.6 7.7-5.2 10-6 3.3-10.4 3.3H259c-40.5 0-75.1-14.4-103.9-43.1S112 732.1 112 691.6V332.4c0-40.5 14.4-75.1 43.1-103.9 28.8-28.8 63.3-43.1 103.9-43.1h163.3c4.4 0 8.3 1.6 11.5 4.8 3.2 3.2 4.8 7.1 4.8 11.5 0 1.4 0.2 4.7 0.5 10.2 0.3 5.5 0.4 10 0.2 13.5s-0.6 7.6-1.5 12-2.6 7.7-5.2 10-6 3.3-10.4 3.3H259c-22.4 0-41.6 8-57.6 23.9-16 16-23.9 35.2-23.9 57.6v359.1c0 22.4 7.9 41.6 23.9 57.6 16 16 35.2 23.9 57.6 23.9h159.2c1.1 0 3 0.2 5.9 0.5 2.9 0.3 4.8 0.9 5.9 1.5 1.1 0.6 2.4 1.6 4.1 2.8 1.7 1.2 2.9 2.7 3.5 4.6 0.6 2.3 0.9 4.6 0.9 7.3zM912 511.9c0 8.8-3.2 16.5-9.7 23L624.8 812.5c-6.4 6.4-14.2 9.7-23 9.7s-16.5-3.2-23-9.7c-6.4-6.4-9.7-14.1-9.7-23V642.6H340.6c-8.8 0-16.5-3.2-23-9.7-6.4-6.4-9.7-14.1-9.7-23V414.1c0-8.8 3.2-16.5 9.7-23s14.1-9.7 23-9.7h228.5v-147c0-8.8 3.2-16.5 9.7-23 6.4-6.4 14.2-9.7 23-9.7s16.5 3.2 23 9.7L902.4 489c6.4 6.5 9.6 14.1 9.6 22.9z"/>
    </g>
</svg>