<?xml version="1.0" standalone="no"?><!DOCTYPE svg PUBLIC "-//W3C//DTD SVG 1.1//EN"
        "http://www.w3.org/Graphics/SVG/1.1/DTD/svg11.dtd">
<svg class="icon" width="16" height="16" version="1.1" xmlns="http://www.w3.org/2000/svg">
    <g transform="scale(0.015625)">
        <path fill="#AFB1B3"
              d="M761.897002 903.732869 119.457184 903.732869l0-698.30415 392.44202 0 56.491619-54.420447-1.444908-1.445932L119.457184 149.562341c-30.850635 0-55.864332 25.013697-55.864332 55.866379l0 698.30415c0 30.848589 25.013697 55.863309 55.864332 55.863309l642.439818 0c30.851659 0 55.865355-25.013697 55.865355-55.863309L817.762357 494.650867l-55.865355 53.328579L761.897002 903.732869zM958.541661 189.059913c-0.517793-30.523177-15.384385-59.954487-43.998073-87.36886-25.205055-24.196075-53.026704-36.416398-82.705654-36.416398-46.452985 0-80.331583 30.006408-89.553619 39.170115-13.06455 12.902868-383.356085 382.65205-383.356085 382.65205-2.892887 2.944052-5.02034 6.573719-6.083555 10.584056-10.038634 37.068244-60.310597 201.633277-60.801784 203.270567-2.591011 8.429996-0.273223 17.621333 5.919826 23.759123 4.472871 4.472871 10.420327 6.844895 16.501836 6.844895 2.428306 0 4.827959-0.353041 7.202029-1.087774 1.718131-0.601704 171.521468-55.483662 199.481264-63.830771 3.654226-1.091868 7.010671-3.082198 9.765411-5.783727 17.647939-17.401322 357.990371-352.479867 385.538797-380.928802C944.930665 250.54322 959.08606 219.992413 958.541661 189.059913zM876.326171 241.077637c-15.547091 16.039301-137.261177 136.306432-361.78172 357.473601l-17.185404 16.911158c-25.721825 7.964392-87.369883 27.767414-133.932362 42.827411 15.002692-49.53723 32.979112-109.384269 40.998763-137.698129 47.981804-47.898917 365.219006-364.646977 377.275599-376.538819 2.345418-2.345418 23.760147-22.912849 50.136887-22.912849 14.975063 0 29.40368 6.818289 44.053332 20.86726 17.510816 16.802688 26.542516 32.951483 26.78811 48.035016C902.949528 205.562772 894.083603 222.720547 876.326171 241.077637z"></path>
    </g>
</svg>