<?xml version="1.0" standalone="no"?><!DOCTYPE svg PUBLIC "-//W3C//DTD SVG 1.1//EN"
        "http://www.w3.org/Graphics/SVG/1.1/DTD/svg11.dtd">
<svg class="icon" width="16" height="16" version="1.1"
     xmlns="http://www.w3.org/2000/svg">
    <g transform="scale(0.015625)">
        <path fill="#AFB1B3"
              d="M878.3 764.5H537.8V907c0 28.6-23.2 51.8-51.9 51.8H122.7c-28.7 0-51.9-23.2-51.9-51.8V544.2c0-28.6 23.2-51.8 51.9-51.8h133V142.5c0-42.9 34.9-77.7 77.8-77.7h544.8c43 0 77.8 34.8 77.8 77.7v544.2c0.1 42.9-34.8 77.8-77.8 77.8z m-9.7-553.9c0-32.2-26.1-58.3-58.4-58.3H401.6c-32.2 0-58.4 26.1-58.4 58.3v408.1c0 32.2 26.1 58.3 58.4 58.3h408.6c32.2 0 58.4-26.1 58.4-58.3V210.6z m0 0"/>
    </g>
</svg>