<?xml version="1.0" standalone="no"?><!DOCTYPE svg PUBLIC "-//W3C//DTD SVG 1.1//EN"
        "http://www.w3.org/Graphics/SVG/1.1/DTD/svg11.dtd">
<svg class="icon" width="16" height="16" version="1.1" xmlns="http://www.w3.org/2000/svg"
     xmlns:xlink="http://www.w3.org/1999/xlink">
    <g transform="scale(0.015625)">
        <path d="M510.12545776 90.125C278.16094971 90.125 90.125 278.32492065 90.125 510.28942871c0 232.00817871 188.03594971 420.08450317 420.00045776 420.08450317 232.0477295 0 420.16442871-188.07632446 420.16442872-420.08450316C930.28988648 278.32492065 742.17318726 90.125 510.12545776 90.125m42.04083252 753.29324341v-123.08532715H468.24859619v123.08532715c-151.74234008-19.00827026-272.11761474-139.46676636-291.2494812-291.16955567h123.08532715V468.24859619h-123.08532715c19.13186646-151.70114136 139.50796508-272.07641602 291.2494812-291.16708374v123.16690064h83.91769409V177.08151245c151.74234008 19.09066773 272.11761474 139.46594239 291.25030518 291.16708374h-123.16772461v84.00009155h123.16690063c-19.13186646 151.7027893-139.50714112 272.16046143-291.2494812 291.16955567"
              fill="#AFB1B3"></path>
    </g>
</svg>