<?xml version="1.0" standalone="no"?><!DOCTYPE svg PUBLIC "-//W3C//DTD SVG 1.1//EN"
        "http://www.w3.org/Graphics/SVG/1.1/DTD/svg11.dtd">
<svg class="icon" width="16" height="16" version="1.1"
     xmlns="http://www.w3.org/2000/svg">
    <g transform="scale(0.015625)">
        <path fill="#6E6E6E"
              d="M833.745455 0H190.254545C122.763636 0 65.939394 63.612121 65.939394 132.848485v763.927273a127.224242 127.224242 0 0 0 124.315151 127.224242h635.345455A132.654545 132.654545 0 0 0 958.060606 896.775758V127.224242A127.224242 127.224242 0 0 0 833.745455 0z m-310.303031 725.333333H244.363636a31.030303 31.030303 0 1 1 0-62.060606h279.272728a31.030303 31.030303 0 1 1 0 62.060606z m256-213.333333H244.363636a31.030303 31.030303 0 1 1 0-62.060606h535.272728a31.030303 31.030303 0 1 1 0 62.060606z m0-213.333333H244.363636a31.030303 31.030303 0 1 1 0-62.060606h535.272728a31.030303 31.030303 0 1 1 0 62.060606z"/>
    </g>
</svg>