<?xml version="1.0" standalone="no"?><!DOCTYPE svg PUBLIC "-//W3C//DTD SVG 1.1//EN"
        "http://www.w3.org/Graphics/SVG/1.1/DTD/svg11.dtd">
<svg class="icon" width="16" height="16" version="1.1" xmlns="http://www.w3.org/2000/svg">
    <g transform="scale(0.015625)">
        <path fill="#AFB1B3"
              d="M912 311.9c0 4.1-1.3 7.6-4 10.2l-142.9 143c-2.7 2.7-6.1 4-10.2 4-3.8 0-7.2-1.4-10-4.2-2.8-2.8-4.2-6.2-4.2-10v-85.7H626.3c-14.3 0-27.2 2.3-38.9 6.7-11.6 4.5-21.9 11.2-30.8 20.1-8.9 8.9-16.5 18.1-22.7 27.4-6.3 9.4-13 20.9-20.1 34.6-9.5 18.5-21.1 43.9-34.8 76.3-8.6 19.6-16 36.2-22.1 49.6-6.1 13.4-14.2 29-24.1 46.9s-19.5 32.8-28.5 44.6c-9.1 11.9-20.1 24.2-33.1 37.1-13 12.8-26.4 23-40.2 30.6-13.8 7.6-29.7 13.8-47.5 18.8-17.8 4.9-36.9 7.3-57.2 7.3h-100c-4.1 0-7.6-1.3-10.2-4-2.7-2.6-4-6-4-10.1v-85.7c0-4.1 1.3-7.6 4-10.2 2.7-2.7 6.1-4 10.2-4h100c14.3 0 27.2-2.3 38.9-6.7 11.6-4.5 21.9-11.2 30.8-20.1 8.9-8.9 16.5-18.1 22.7-27.4 6.3-9.4 13-20.9 20.1-34.6 9.5-18.4 21.1-43.9 34.8-76.3 8.6-19.6 16-36.2 22.1-49.6 6.1-13.4 14.2-29 24.1-46.9 10-17.8 19.5-32.8 28.5-44.6 9.1-11.9 20.1-24.2 33.1-37.1 13-12.8 26.4-23 40.2-30.6 13.8-7.6 29.7-13.8 47.5-18.8 17.8-4.9 36.9-7.3 57.2-7.3h114.3v-85.7c0-4.1 1.3-7.6 4-10.2 2.7-2.7 6.1-4 10.2-4 3.6 0 7.1 1.5 10.7 4.5L908 301.9c2.7 2.4 4 5.9 4 10z m-502.7 43.3c-17.8 27.4-38.2 68-61.1 121.9-6.6-13.4-12-24.1-16.5-32.4-4.5-8.2-10.5-17.7-18.1-28.4-7.6-10.7-15.2-19.2-22.7-25.3-7.6-6.1-17-11.3-28.2-15.6-11.2-4.3-23.3-6.5-36.4-6.5h-99.9c-4.1 0-7.6-1.3-10.2-4-2.7-2.7-4-6.1-4-10.2V269c0-4.1 1.3-7.6 4-10.2 2.7-2.7 6.1-4 10.2-4h100c74.2-0.1 135.3 33.4 182.9 100.4zM912 711.9c0 4.1-1.3 7.6-4 10.2l-142.9 143c-2.7 2.7-6.1 4-10.2 4-3.8 0-7.2-1.4-10-4.2s-4.2-6.2-4.2-10v-85.7c-9.5 0-22.2 0.1-37.9 0.2-15.8 0.2-27.8 0.3-36.2 0.5-8.4 0.2-19.2 0-32.6-0.5s-23.9-1.2-31.7-2.3c-7.7-1-17.3-2.6-28.5-4.7-11.3-2.1-20.7-4.8-28.2-8.3-7.4-3.4-16.1-7.7-25.9-12.8-9.9-5.1-18.6-11-26.4-17.8-7.7-6.9-16-14.8-24.6-23.8-8.6-9.1-17-19.4-25-31 17.6-27.7 37.8-68.3 60.8-121.9 6.6 13.4 12 24.2 16.5 32.4s10.5 17.7 18.1 28.4c7.6 10.7 15.2 19.2 22.7 25.3 7.6 6.1 17 11.4 28.2 15.6 11.2 4.3 23.3 6.5 36.4 6.5h114.3v-85.7c0-4.1 1.3-7.6 4-10.2 2.7-2.7 6.1-4 10.2-4 3.6 0 7.1 1.5 10.7 4.5L908 702c2.7 2.3 4 5.8 4 9.9z"/>
    </g>
</svg>