<?xml version="1.0" standalone="no"?><!DOCTYPE svg PUBLIC "-//W3C//DTD SVG 1.1//EN"
        "http://www.w3.org/Graphics/SVG/1.1/DTD/svg11.dtd">
<svg class="icon" width="16" height="16" version="1.1" xmlns="http://www.w3.org/2000/svg">
    <g transform="scale(0.015625)">
        <path fill="#6E6E6E"
              d="M899 595.4c0 1.8-0.2 3-0.5 3.6-22.2 93.1-68.8 168.5-139.6 226.3-70.9 57.8-153.8 86.8-249 86.8-50.7 0-99.8-9.5-147.1-28.7-47.4-19.1-89.7-46.3-126.9-81.7l-67.2 67.2c-6.6 6.6-14.5 9.9-23.4 9.9s-16.9-3.3-23.4-9.9c-6.6-6.6-9.9-14.5-9.9-23.4V612c0-9 3.3-16.9 9.9-23.4 6.6-6.6 14.4-9.9 23.4-9.9h233.3c9 0 16.9 3.3 23.4 9.9s9.9 14.5 9.9 23.4-3.3 16.9-9.9 23.4l-71.3 71.3c24.6 22.9 52.6 40.6 83.9 53.1 31.2 12.5 63.8 18.7 97.4 18.7 46.6 0 89.9-11.3 130.2-33.8 40.3-22.6 72.5-53.7 96.8-93.2 3.8-5.9 13-26.2 27.6-60.9 2.7-8 8-11.9 15.7-11.9h100c4.5 0 8.4 1.6 11.7 4.9 3.3 3.3 5 7.3 5 11.8z m13-416.7V412c0 9-3.3 16.9-9.9 23.4s-14.5 9.9-23.4 9.9H645.4c-9 0-16.9-3.3-23.4-9.9s-9.9-14.4-9.9-23.4c0-9 3.3-16.9 9.9-23.4l71.9-71.9c-51.5-47.5-112.1-71.3-181.8-71.3-46.6 0-89.9 11.3-130.2 33.8s-72.6 53.7-96.8 93.2c-3.8 5.9-13 26.2-27.6 60.9-2.7 8-8 11.9-15.7 11.9H138c-4.5 0-8.4-1.6-11.7-4.9-3.3-3.3-4.9-7.2-4.9-11.7V425c22.6-93 69.5-168.5 140.7-226.3 71.2-57.8 154.6-86.8 250-86.8 50.7 0 100 9.6 147.9 28.9s90.5 46.4 127.6 81.5l67.7-67.2c6.6-6.6 14.4-9.9 23.4-9.9 9 0 16.9 3.3 23.4 9.9 6.5 6.8 9.9 14.6 9.9 23.6z"/>
    </g>
</svg>