<?xml version="1.0" standalone="no"?><!DOCTYPE svg PUBLIC "-//W3C//DTD SVG 1.1//EN"
        "http://www.w3.org/Graphics/SVG/1.1/DTD/svg11.dtd">
<svg class="icon" width="16" height="16" version="1.1" xmlns="http://www.w3.org/2000/svg">
    <g transform="scale(0.015625)">
        <path fill="#6E6E6E" d="M1014.88968 411.786477l-364.412811-400.854093c-14.576512-14.576512-36.441281-14.576512-51.017794 0C584.882562 25.508897 584.882562 32.797153 584.882562 47.373665l0 211.359431c-298.818505 0-583.060498 247.800712-583.060498 546.619217 0 80.170819 36.441281 182.206406 72.882562 218.647687 43.729537-225.935943 269.66548-400.854093 510.177936-400.854093 0 21.864769 0 218.647687 0 218.647687 0 7.288256 0 14.576512 7.288256 29.153025 14.576512 14.576512 43.729537 7.288256 51.017794 0l364.412811-393.565836C1022.177936 462.80427 1022.177936 448.227758 1022.177936 440.939502 1022.177936 433.651246 1022.177936 419.074733 1014.88968 411.786477z"></path>
    </g>
</svg>