<?xml version="1.0" standalone="no"?><!DOCTYPE svg PUBLIC "-//W3C//DTD SVG 1.1//EN"
        "http://www.w3.org/Graphics/SVG/1.1/DTD/svg11.dtd">
<svg class="icon" width="16" height="16" version="1.1" xmlns="http://www.w3.org/2000/svg">
    <g transform="scale(0.015625)">
        <path fill="#AFB1B3"
              d="M511.696078 242.307651c-194.165188 0-362.726232 109.305475-447.733301 269.691325 85.007069 160.386874 253.568113 269.693372 447.733301 269.693372S874.42231 672.386874 959.429379 511.998977C874.42231 351.613126 705.861266 242.307651 511.696078 242.307651zM511.696078 684.670641c-95.362928 0-172.669618-77.30669-172.669618-172.669618s77.30669-172.669618 172.669618-172.669618 172.669618 77.30669 172.669618 172.669618S607.059006 684.670641 511.696078 684.670641zM511.696078 511.998977m-92.090395 0a89.993 89.993 0 1 0 184.180789 0 89.993 89.993 0 1 0-184.180789 0Z"></path>
    </g>
</svg>