<?xml version="1.0" standalone="no"?><!DOCTYPE svg PUBLIC "-//W3C//DTD SVG 1.1//EN"
        "http://www.w3.org/Graphics/SVG/1.1/DTD/svg11.dtd">
<svg class="icon" width="16" height="16" version="1.1"
     xmlns="http://www.w3.org/2000/svg">
    <g transform="scale(0.015625)">
        <path fill="#6E6E6E"
              d="M301.511111 676.977778C187.733333 614.4 113.777778 494.933333 113.777778 364.088889 113.777778 164.977778 290.133333 0 500.622222 0c216.177778 0 386.844444 164.977778 386.844445 364.088889 0 130.844444-73.955556 250.311111-187.733334 312.888889-5.688889 34.133333-22.755556 62.577778-45.511111 85.333333H347.022222c-22.755556-22.755556-39.822222-56.888889-45.511111-85.333333zM779.377778 398.222222c0-153.6-125.155556-278.755556-278.755556-278.755555-22.755556 0-34.133333 11.377778-34.133333 34.133333 0 5.688889 11.377778 17.066667 34.133333 17.066667 119.466667 0 221.866667 96.711111 221.866667 227.555555 0 5.688889 11.377778 17.066667 34.133333 17.066667 11.377778 0 22.755556-11.377778 22.755556-17.066667z m-443.733334 449.422222c0-17.066667 17.066667-34.133333 34.133334-34.133333H625.777778c22.755556 0 34.133333 17.066667 34.133333 34.133333s-17.066667 34.133333-34.133333 34.133334H375.466667c-22.755556 0-39.822222-11.377778-39.822223-34.133334z m318.577778 85.333334C625.777778 984.177778 568.888889 1024 500.622222 1024c-62.577778 0-119.466667-34.133333-147.911111-85.333333h301.511111v-5.688889z"/>
    </g>
</svg>