<?xml version="1.0" standalone="no"?><!DOCTYPE svg PUBLIC "-//W3C//DTD SVG 1.1//EN"
        "http://www.w3.org/Graphics/SVG/1.1/DTD/svg11.dtd">
<svg class="icon" width="16" height="16" version="1.1"
     xmlns="http://www.w3.org/2000/svg">
    <g transform="scale(0.015625)">
        <path fill="#6E6E6E"
              d="M704 313.984V256c0-124.672-11.328-128-128-128H256c-120.704 0-128-4.672-128 128v512c0 144.704 11.328 128 128 128h320v128H128a128 128 0 0 1-128-128V128a128 128 0 0 1 128-128h576a128 128 0 0 1 128 128v192h-128v-6.016zM256 256h320v128H256V256z m0 512v-128h128v128H256z m0-320h192v128H256V448z m515.968-63.168L1024 704h-192v320h-128v-320H512l259.968-319.168z"/>
    </g>
</svg>