<?xml version="1.0" standalone="no"?><!DOCTYPE svg PUBLIC "-//W3C//DTD SVG 1.1//EN"
        "http://www.w3.org/Graphics/SVG/1.1/DTD/svg11.dtd">
<svg class="icon" width="16" height="16" version="1.1"
     xmlns="http://www.w3.org/2000/svg">
    <g transform="scale(0.015625)">
        <path fill="#6E6E6E"
              d="M512 967.111111c-129.194667-2.958222-236.600889-47.246222-322.218667-132.892444C104.163556 748.600889 59.847111 641.194667 56.888889 512c2.958222-129.194667 47.246222-236.600889 132.892444-322.218667C275.399111 104.163556 382.805333 59.847111 512 56.888889c129.194667 2.958222 236.600889 47.246222 322.218667 132.892444C919.836444 275.399111 964.152889 382.805333 967.111111 512c-2.958222 129.194667-47.246222 236.600889-132.892444 322.218667C748.600889 919.836444 641.194667 964.152889 512 967.111111z m0-455.111111V256a28.444444 28.444444 0 0 0-56.888889 0v284.444444a28.444444 28.444444 0 0 0 28.444445 28.444445h227.555555a28.444444 28.444444 0 0 0 0-56.888889h-199.111111z"/>
    </g>
</svg>